<?xml version="1.0" encoding="UTF-8"?>
<svg xmlns="http://www.w3.org/2000/svg" xmlns:xlink="http://www.w3.org/1999/xlink" version="1.1" viewBox="0 0 595.28 841.89">
  <!-- Generator: Adobe Illustrator 29.8.1, SVG Export Plug-In . SVG Version: 2.1.1 Build 2)  -->
  <defs>
    <style>
      .st0 {
        fill: none;
        stroke: #231f20;
        stroke-miterlimit: 10;
      }

      .st1 {
        fill: url(#linear-gradient2);
      }

      .st2 {
        fill: url(#linear-gradient1);
      }

      .st3 {
        fill: url(#linear-gradient3);
      }

      .st4 {
        fill: url(#linear-gradient4);
      }

      .st5 {
        fill: #231f20;
      }

      .st6 {
        fill: url(#linear-gradient);
      }

      .st7 {
        fill: #fff;
        font-family: JetBrainsMono-Bold, 'JetBrains Mono';
        font-size: 48px;
        font-weight: 700;
      }
    </style>
    <linearGradient id="linear-gradient" x1="39.65" y1="462.31" x2="453.72" y2="462.31" gradientUnits="userSpaceOnUse">
      <stop offset=".22" stop-color="#49ba7f"/>
      <stop offset=".37" stop-color="#4aac8c"/>
      <stop offset=".91" stop-color="#507bbd"/>
    </linearGradient>
    <linearGradient id="linear-gradient1" x1="210.15" y1="13.03" x2="213.86" y2="13.03" gradientUnits="userSpaceOnUse">
      <stop offset="0" stop-color="#49bd99"/>
      <stop offset="1" stop-color="#2958a8"/>
    </linearGradient>
    <linearGradient id="linear-gradient2" x1="351.32" y1="561.12" x2="351.65" y2="561.12" xlink:href="#linear-gradient1"/>
    <linearGradient id="linear-gradient3" x1="-120.36" y1="146.27" x2="125.47" y2="146.27" gradientTransform="translate(254.88 522.4) rotate(178.27)" gradientUnits="userSpaceOnUse">
      <stop offset=".43" stop-color="#49ba7f"/>
      <stop offset="1" stop-color="#507bbd"/>
    </linearGradient>
    <linearGradient id="linear-gradient4" x1="250.25" y1="402.72" x2="518.78" y2="402.72" gradientUnits="userSpaceOnUse">
      <stop offset="0" stop-color="#49ba7f"/>
      <stop offset="0" stop-color="#507bbd"/>
    </linearGradient>
  </defs>
  <g id="Layer_1">
    <polygon class="st6" points="386.8 277.5 367.93 436.01 453.72 647.11 39.65 440.88 386.8 277.5"/>
    <line class="st2" x1="213.86" y1="12.1" x2="210.15" y2="13.96"/>
    <line class="st0" x1="381.43" y1="459.11" x2="381.38" y2="459.14"/>
    <line class="st1" x1="351.65" y1="561.02" x2="351.32" y2="561.21"/>
    <polygon class="st3" points="122.54 296.34 267.18 194.78 367.93 277.78 291.06 555.9 122.54 296.34"/>
    <polygon class="st4" points="391.63 551.74 250.25 407.8 302.36 253.71 518.78 294.93 391.63 551.74"/>
    <polygon class="st5" points="229.72 561.21 150.11 425.56 224.89 286.97 379.29 284.03 458.9 419.68 384.12 558.27 229.72 561.21"/>
  </g>
  <g id="Layer_2">
    <text class="st7" transform="translate(200.33 411.34)"><tspan x="0" y="0">COMPOSE</tspan><tspan x="0" y="57.6">PREVIEW</tspan></text>
  </g>
</svg>